<svg width="65" height="65" viewBox="0 0 65 65" fill="none" xmlns="http://www.w3.org/2000/svg">
<rect width="65" height="65" fill="black"/>
<path d="M56.0897 28.903C55.2113 27.9135 53.9441 27.5501 53.1364 27.4137V22.6076C53.1364 10.9508 43.8826 1.46484 32.5135 1.46484C21.1445 1.46484 11.8958 10.9508 11.8958 22.6076V27.4087C11.088 27.54 9.80573 27.8984 8.91721 28.898C8.21548 29.6906 7.90753 30.7306 8.02869 31.9169L8.07412 32.3915C8.37703 35.4761 8.78595 39.641 11.9867 40.4185C12.3653 45.472 13.9555 50.3386 16.6463 54.6247L17.6712 56.2554C20.5336 60.8141 25.4003 63.5352 30.686 63.5352H34.3411C39.6318 63.5352 44.4935 60.8141 47.3559 56.2554L48.3807 54.6247C51.0715 50.3386 52.6618 45.4669 53.0404 40.4134C56.2159 39.6208 56.6299 35.471 56.9277 32.3915L56.9732 31.9169C57.0893 30.7306 56.7813 29.6906 56.0846 28.898L56.0897 28.903ZM10.3358 32.1744L10.2904 31.6948C10.2348 31.1445 10.3409 30.7255 10.6135 30.4125C10.9315 30.049 11.4414 29.8471 11.8958 29.731V37.8741C10.8962 37.0108 10.5983 34.84 10.3358 32.1744ZM50.8646 38.0508C50.8646 43.5132 49.3399 48.8292 46.4573 53.4182L45.4325 55.0488C42.989 58.9412 38.8443 61.2634 34.3411 61.2634H30.686C26.1828 61.2634 22.0381 58.9412 19.5946 55.0488L18.5698 53.4182C15.6871 48.8292 14.1625 43.5132 14.1625 38.0508V22.6076C14.1676 12.2028 22.3965 3.73663 32.5135 3.73663C42.6306 3.73663 50.8646 12.2028 50.8646 22.6076V38.0508ZM54.7165 31.6948L54.6711 32.1744C54.4136 34.8198 54.1157 36.9755 53.1364 37.8539V29.7411C53.5806 29.8572 54.0804 30.0591 54.3934 30.4176C54.666 30.7306 54.772 31.1496 54.7165 31.6999V31.6948Z" fill="white"/>
<path d="M35.9922 51.2373C35.8508 51.1464 35.6741 51.1262 35.5176 51.1919C32.6047 52.4136 29.5403 51.202 29.51 51.1919C29.3585 51.1313 29.1869 51.1464 29.0506 51.2322C28.9143 51.3181 28.8284 51.4695 28.8184 51.6311C28.8083 51.7876 28.6619 55.4578 32.3472 57.1944C32.4128 57.2247 32.4886 57.2399 32.5592 57.2399C32.64 57.2399 32.7157 57.2197 32.7864 57.1843C32.9278 57.1137 36.2143 55.3921 36.2143 51.6563C36.2143 51.4897 36.1285 51.3282 35.9922 51.2373Z" fill="white"/>
</svg>
